<svg xmlns="http://www.w3.org/2000/svg" width="19" height="16" viewBox="0 0 19 16">
  <g id="icon-error" transform="translate(6383 11728.085)">
    <path id="Polygon_1" data-name="Polygon 1" d="M7.78,2.9a2,2,0,0,1,3.439,0l5.987,10.083A2,2,0,0,1,15.487,16H3.513a2,2,0,0,1-1.72-3.021Z" transform="translate(-6383 -11728.085)" fill="#fff"/>
    <path id="Union_5" data-name="Union 5" d="M0,8V3.769a1,1,0,0,1,2,0V8A1,1,0,1,1,0,8ZM0,1.038A1.021,1.021,0,0,1,1,0,1.02,1.02,0,0,1,2,1.038,1.02,1.02,0,0,1,1,2.076,1.02,1.02,0,0,1,0,1.038Z" transform="translate(-6372.499 -11714.085) rotate(180)" fill="#ff3d49"/>
  </g>
</svg>
