<svg id="shield-lock-fill" xmlns="http://www.w3.org/2000/svg" width="16.136" height="18" viewBox="0 0 16.136 18">
  <path id="Path_57" data-name="Path 57" d="M5.89,1.1A16.065,16.065,0,0,1,9.265.469a16.079,16.079,0,0,1,3.375.63q1.675.45,3.327.978a1.745,1.745,0,0,1,1.2,1.421,14.543,14.543,0,0,1-2.84,11.239,13.43,13.43,0,0,1-2.9,2.76,8.33,8.33,0,0,1-1.208.7,2.5,2.5,0,0,1-.955.27,2.5,2.5,0,0,1-.955-.27A8.29,8.29,0,0,1,7.1,17.5a13.43,13.43,0,0,1-2.9-2.76A14.532,14.532,0,0,1,1.36,3.5a1.745,1.745,0,0,1,1.2-1.421Q4.214,1.549,5.89,1.1ZM9.883,9.36a1.8,1.8,0,1,0-1.272-.013.6.6,0,0,0-.052.164l-.4,2.4a.6.6,0,0,0,.591.7h1a.6.6,0,0,0,.591-.7l-.416-2.4a.6.6,0,0,0-.045-.146Z" transform="translate(-1.197 -0.469)" fill="#ccc" fill-rule="evenodd"/>
</svg>
