<svg xmlns="http://www.w3.org/2000/svg" width="16.412" height="16.412" viewBox="0 0 16.412 16.412">
  <g id="icon-og-out" transform="translate(0.75)">
    <path id="Path_3218" data-name="Path 3218" d="M9.471,20.162H6.157A2.41,2.41,0,0,1,3.75,17.755V6.157A2.41,2.41,0,0,1,6.157,3.75H9.471a.75.75,0,1,1,0,1.5H6.157a.908.908,0,0,0-.907.907v11.6a.908.908,0,0,0,.907.907H9.471a.75.75,0,1,1,0,1.5Z" transform="translate(-4.5 -3.75)"/>
    <path id="Path_3219" data-name="Path 3219" d="M24,19.535a.75.75,0,0,1-.53-1.28l3.612-3.612L23.47,11.03A.75.75,0,0,1,24.53,9.97l4.142,4.142a.75.75,0,0,1,0,1.061L24.53,19.315A.748.748,0,0,1,24,19.535Z" transform="translate(-13.23 -6.436)"/>
    <path id="Path_3220" data-name="Path 3220" d="M23.441,18.75H13.5a.75.75,0,0,1,0-1.5h9.941a.75.75,0,1,1,0,1.5Z" transform="translate(-8.529 -9.794)"/>
  </g>
</svg>
